<svg width="current" height="current" viewBox="0 0 33 32" fill="none" xmlns="http://www.w3.org/2000/svg">
<path d="M19.0067 27.9998C18.7723 28.4039 18.4358 28.7394 18.031 28.9725C17.6262 29.2057 17.1672 29.3284 16.7 29.3284C16.2328 29.3284 15.7739 29.2057 15.369 28.9725C14.9642 28.7394 14.6278 28.4039 14.3933 27.9998M24.7 10.6665C24.7 8.54477 23.8572 6.50994 22.3569 5.00965C20.8566 3.50936 18.8217 2.6665 16.7 2.6665C14.5783 2.6665 12.5434 3.50936 11.0432 5.00965C9.54287 6.50994 8.70001 8.54477 8.70001 10.6665C8.70001 19.9998 4.70001 22.6665 4.70001 22.6665H28.7C28.7 22.6665 24.7 19.9998 24.7 10.6665Z" stroke="inherit" stroke-width="3" stroke-linecap="round" stroke-linejoin="round"/>
</svg>
