<svg width="71" height="71" viewBox="0 0 71 71" fill="none" xmlns="http://www.w3.org/2000/svg">
  <path fill-rule="evenodd" clip-rule="evenodd" d="M29.2014 68.7011C47.538 72.1798 65.2227 60.1351 68.7014 41.7985C72.1801 23.4619 60.1353 5.77718 41.7988 2.29852C23.4622 -1.18015 5.77743 10.8646 2.29876 29.2011C-1.17991 47.5377 10.8648 65.2225 29.2014 68.7011ZM11.2161 34.6227C10.8618 40.4954 13.4945 53.4134 26.8604 58.104C27.74 54.1958 27.8987 46.331 25.4302 42.7066C25.3094 42.5293 25.1889 42.3452 25.0645 42.1553C23.52 39.7966 21.3967 36.554 11.2161 34.6227ZM35.0701 59.6615C49.2253 60.192 56.4063 49.1357 58.2273 43.5413C48.0468 41.6099 44.8837 43.8494 42.5826 45.4785C42.3974 45.6096 42.2174 45.7371 42.0402 45.8578C38.4158 48.3263 35.683 55.7028 35.0701 59.6615ZM12.8467 26.0281C15.4069 19.8142 26.1556 8.73801 40.8155 11.8507C55.4753 14.9634 58.958 28.3526 59.8485 34.945C52.5059 29.9604 32.8259 21.1987 12.8467 26.0281Z" fill="#D6D6D6"/>
  <path fill-rule="evenodd" clip-rule="evenodd" d="M41.5658 3.52661C23.9075 0.176619 6.87685 11.7758 3.52686 29.4341C0.176863 47.0925 11.7761 64.1231 29.4344 67.4731C47.0927 70.823 64.1233 59.2238 67.4733 41.5655C70.8233 23.9072 59.2241 6.8766 41.5658 3.52661ZM1.07066 28.9682C4.678 9.95333 23.0169 -2.53692 42.0317 1.07042C61.0466 4.67776 73.5368 23.0167 69.9295 42.0315C66.3221 61.0463 47.9832 73.5366 28.9684 69.9292C9.95357 66.3219 -2.53668 47.983 1.07066 28.9682ZM21.6108 14.3949C26.6714 11.0941 33.3587 8.98955 41.0751 10.6279C56.5842 13.921 60.1863 28.1078 61.0873 34.7776C61.1533 35.2663 60.9258 35.7482 60.5065 36.0078C60.0872 36.2674 59.5545 36.2561 59.1465 35.9792C51.9648 31.1039 32.6489 22.5274 13.1404 27.2431C12.6835 27.3536 12.2034 27.1984 11.8976 26.8416C11.5917 26.4847 11.5119 25.9865 11.6909 25.552C13.0781 22.1852 16.5844 17.6735 21.6108 14.3949ZM15.191 24.2505C32.8122 20.9841 49.7403 27.5188 58.146 32.4065C56.7223 25.5921 52.635 15.6382 40.5558 13.0734C33.6124 11.5991 27.5954 13.4763 22.9766 16.4889C19.4472 18.791 16.7835 21.7251 15.191 24.2505ZM10.4482 33.6363C10.7316 33.4157 11.0962 33.3276 11.4491 33.3946C16.6407 34.3795 19.8943 35.7193 22.0778 37.1924C24.283 38.6801 25.312 40.2515 26.103 41.4594L26.11 41.4702C26.2356 41.6619 26.3501 41.8367 26.4633 42.0029C27.8975 44.1086 28.4871 47.2699 28.649 50.2306C28.8133 53.2377 28.5483 56.2976 28.0799 58.3785C28.0016 58.7265 27.7783 59.0245 27.4663 59.1974C27.1542 59.3703 26.7831 59.4016 26.4465 59.2835C12.3345 54.331 9.59681 40.7054 9.96839 34.5474C9.99002 34.1889 10.1648 33.857 10.4482 33.6363ZM12.4414 36.1485C12.5862 41.9322 15.4134 51.9885 25.9006 56.3958C26.1488 54.6805 26.2703 52.5185 26.1527 50.3671C25.9966 47.5123 25.4314 44.9289 24.397 43.4103C24.2697 43.2234 24.1438 43.031 24.0215 42.8443L24.0188 42.8401C23.2661 41.6907 22.4607 40.4664 20.6797 39.2649C19.0543 38.1684 16.5503 37.0506 12.4414 36.1485ZM47.7211 44.395C45.6239 44.8608 44.4262 45.7049 43.3049 46.4987L43.3025 46.5004L43.3013 46.5013C43.1189 46.6304 42.931 46.7635 42.7439 46.8909C41.2252 47.9253 39.7531 50.1221 38.5623 52.7214C37.6649 54.6803 36.9862 56.7366 36.5889 58.4236C47.9616 58.1633 54.2754 49.8412 56.5284 44.5124C52.3745 43.8469 49.6351 43.97 47.7211 44.395ZM47.1792 41.9545C49.7505 41.3834 53.2688 41.3283 58.4603 42.3132C58.8132 42.3802 59.1202 42.5957 59.3031 42.9048C59.486 43.2139 59.5271 43.5867 59.416 43.9282C57.5064 49.7945 49.9687 61.4707 35.0233 60.9107C34.6668 60.8973 34.333 60.7323 34.106 60.4571C33.8789 60.1819 33.7803 59.8228 33.8349 59.4703C34.1612 57.3625 35.0352 54.4181 36.2894 51.6802C37.5244 48.9845 39.2309 46.2588 41.3366 44.8246C41.5027 44.7115 41.6729 44.591 41.8599 44.4587L41.8622 44.457L41.8709 44.4508C43.0493 43.6165 44.5823 42.5311 47.1792 41.9545Z" fill="black"/>
  <path d="M33.8445 33.0691C33.7374 33.6333 33.1933 34.0039 32.6291 33.8969C32.0649 33.7898 31.6943 33.2457 31.8013 32.6815C31.9083 32.1173 32.4525 31.7467 33.0167 31.8537C33.5809 31.9607 33.9515 32.5049 33.8445 33.0691Z" fill="black"/>
  <path d="M39.4631 34.135C39.3561 34.6992 38.8119 35.0698 38.2477 34.9628C37.6835 34.8558 37.3129 34.3116 37.4199 33.7474C37.527 33.1832 38.0711 32.8126 38.6353 32.9197C39.1995 33.0267 39.5701 33.5708 39.4631 34.135Z" fill="black"/>
  <path fill-rule="evenodd" clip-rule="evenodd" d="M38.5798 36.5704C39.1025 37.0213 39.1606 37.8107 38.7096 38.3334C37.9043 39.2666 37.056 39.8947 36.1559 40.176C35.2234 40.4675 34.3484 40.3507 33.6053 39.9941C32.2238 39.3311 31.3725 37.8903 30.9833 36.9135C30.7278 36.2722 31.0405 35.5452 31.6818 35.2896C32.3231 35.0341 33.0502 35.3468 33.3057 35.9881C33.605 36.7393 34.1419 37.4786 34.687 37.7402C34.9072 37.8459 35.1301 37.8774 35.41 37.7899C35.7223 37.6923 36.2008 37.414 36.8168 36.7002C37.2678 36.1775 38.0571 36.1194 38.5798 36.5704Z" fill="black"/>
</svg>
