<svg width="79" height="79" viewBox="0 0 79 79" fill="none" xmlns="http://www.w3.org/2000/svg">
<path d="M36.5942 39.478C37.0946 41.9542 38.8678 45.6244 41.9575 40.4955" stroke="#323232" stroke-width="1.5597" stroke-linejoin="round"/>
<path fill-rule="evenodd" clip-rule="evenodd" d="M33.2016 72.7014C51.5382 76.1801 69.2229 64.1354 72.7016 45.7988C76.1803 27.4622 64.1356 9.77747 45.799 6.2988C27.4624 2.82014 9.77764 14.8649 6.29897 33.2014C2.82031 51.538 14.865 69.2228 33.2016 72.7014ZM15.2163 38.623C14.862 44.4956 17.4947 57.4137 30.8607 62.1043C31.7402 58.1961 31.8989 50.3313 29.4304 46.7069C29.3097 46.5296 29.1891 46.3455 29.0647 46.1556L29.0646 46.1554C27.52 43.7966 25.3969 40.5543 15.2163 38.623ZM39.0703 63.6618C53.2255 64.1923 60.4065 53.136 62.2276 47.5416C52.047 45.6102 48.8839 47.8497 46.5828 49.4788L46.5824 49.4791C46.3972 49.6102 46.2176 49.7374 46.0404 49.8581C42.416 52.3266 39.6832 59.703 39.0703 63.6618ZM16.8469 30.0284C19.4071 23.8145 30.1558 12.7383 44.8157 15.851C59.4756 18.9637 62.9583 32.3529 63.8487 38.9452C56.5061 33.9607 36.8261 25.1989 16.8469 30.0284Z" fill="#D6D6D6"/>
<path d="M30.8607 62.1043L30.6024 62.8401C30.8124 62.9138 31.0439 62.8943 31.2386 62.7864C31.4333 62.6786 31.5726 62.4927 31.6215 62.2755L30.8607 62.1043ZM15.2163 38.623L15.3617 37.8568C15.1415 37.815 14.9141 37.87 14.7373 38.0076C14.5604 38.1453 14.4514 38.3523 14.4379 38.576L15.2163 38.623ZM29.4304 46.7069L30.0749 46.2679L29.4304 46.7069ZM29.0647 46.1556L29.7172 45.7284C29.7146 45.7244 29.712 45.7205 29.7093 45.7166L29.0647 46.1556ZM29.0646 46.1554L28.4122 46.5826C28.4148 46.5865 28.4174 46.5905 28.42 46.5944L29.0646 46.1554ZM62.2276 47.5416L62.9691 47.783C63.0385 47.5699 63.0128 47.3373 62.8987 47.1445C62.7846 46.9516 62.5931 46.8172 62.3729 46.7754L62.2276 47.5416ZM39.0703 63.6618L38.2997 63.5425C38.2656 63.7625 38.3272 63.9865 38.4688 64.1582C38.6105 64.3298 38.8187 64.4328 39.0411 64.4411L39.0703 63.6618ZM46.5828 49.4788L47.032 50.1163L47.0334 50.1153L46.5828 49.4788ZM46.5824 49.4791L46.1332 48.8416L46.1317 48.8427L46.5824 49.4791ZM46.0404 49.8581L45.6014 49.2135L46.0404 49.8581ZM16.8469 30.0284L16.1258 29.7313C16.0141 30.0024 16.0639 30.3133 16.2547 30.5359C16.4455 30.7586 16.7451 30.8553 17.0301 30.7864L16.8469 30.0284ZM63.8487 38.9452L63.4107 39.5905C63.6653 39.7633 63.9976 39.7703 64.2592 39.6083C64.5208 39.4464 64.6628 39.1457 64.6216 38.8408L63.8487 38.9452ZM71.9354 45.6534C68.537 63.5669 51.2604 75.3336 33.347 71.9352L33.0563 73.4676C51.816 77.0266 69.9088 64.7039 73.4678 45.9442L71.9354 45.6534ZM45.6536 7.06499C63.567 10.4634 75.3338 27.74 71.9354 45.6534L73.4678 45.9442C77.0267 27.1844 64.7041 9.09156 45.9443 5.53262L45.6536 7.06499ZM7.06516 33.3468C10.4635 15.4334 27.7402 3.6666 45.6536 7.06499L45.9443 5.53262C27.1846 1.97368 9.09173 14.2964 5.53279 33.0561L7.06516 33.3468ZM33.347 71.9352C15.4335 68.5369 3.66677 51.2602 7.06516 33.3468L5.53279 33.0561C1.97385 51.8158 14.2965 69.9087 33.0563 73.4676L33.347 71.9352ZM31.1189 61.3684C18.2185 56.8412 15.6511 44.3646 15.9948 38.6699L14.4379 38.576C14.0728 44.6267 16.771 57.9862 30.6024 62.8401L31.1189 61.3684ZM28.7858 47.1459C29.8954 48.775 30.4652 51.467 30.6224 54.3417C30.7779 57.1876 30.5218 60.0581 30.0998 61.9331L31.6215 62.2755C32.0791 60.2423 32.3421 57.2263 32.1797 54.2566C32.019 51.3158 31.4339 48.2632 30.0749 46.2679L28.7858 47.1459ZM28.4123 46.5828C28.5359 46.7715 28.6604 46.9617 28.7858 47.1459L30.0749 46.2679C29.9589 46.0975 29.8422 45.9194 29.7172 45.7284L28.4123 46.5828ZM28.42 46.5944L28.4202 46.5946L29.7093 45.7166L29.7091 45.7164L28.42 46.5944ZM15.071 39.3891C20.0981 40.3428 23.0631 41.6073 24.9428 42.8754C26.8048 44.1316 27.6521 45.4219 28.4122 46.5826L29.717 45.7281C28.9325 44.5301 27.9459 43.0199 25.8151 41.5824C23.702 40.1568 20.5152 38.8344 15.3617 37.8568L15.071 39.3891ZM61.486 47.3002C59.7201 52.725 52.7617 63.3945 39.0996 62.8825L39.0411 64.4411C53.6893 64.9901 61.0928 53.547 62.9691 47.783L61.486 47.3002ZM47.0334 50.1153C48.1657 49.3137 49.4267 48.4233 51.6194 47.9363C53.833 47.4448 57.0551 47.3541 62.0822 48.3078L62.3729 46.7754C57.2194 45.7977 53.7698 45.8611 51.2813 46.4137C48.7721 46.971 47.301 48.0149 46.1322 48.8424L47.0334 50.1153ZM47.0315 50.1166L47.032 50.1163L46.1336 48.8413L46.1332 48.8416L47.0315 50.1166ZM46.4794 50.5026C46.6635 50.3772 46.8489 50.2459 47.033 50.1156L46.1317 48.8427C45.9455 48.9745 45.7718 49.0975 45.6014 49.2135L46.4794 50.5026ZM39.841 63.7811C40.1351 61.8819 40.948 59.1171 42.1351 56.5259C43.3341 53.9084 44.8503 51.6122 46.4794 50.5026L45.6014 49.2135C43.6061 50.5725 41.9437 53.1987 40.7171 55.8763C39.4784 58.5802 38.6185 61.483 38.2997 63.5425L39.841 63.7811ZM44.9777 15.0881C37.4066 13.4806 30.8454 15.5424 25.8679 18.789C20.9117 22.0217 17.4727 26.4623 16.1258 29.7313L17.5679 30.3255C18.7813 27.3806 21.9968 23.1761 26.72 20.0954C31.4218 17.0286 37.5649 15.1087 44.6537 16.6138L44.9777 15.0881ZM64.6216 38.8408C63.7246 32.2002 60.1674 18.3133 44.9777 15.0881L44.6537 16.6138C58.7837 19.614 62.192 32.5057 63.0759 39.0496L64.6216 38.8408ZM17.0301 30.7864C36.7156 26.0279 56.1685 34.6741 63.4107 39.5905L64.2868 38.3C56.8437 33.2473 36.9365 24.3699 16.6636 29.2704L17.0301 30.7864Z" fill="#323232"/>
<circle cx="36.8234" cy="36.8755" r="1.0398" transform="rotate(10.742 36.8234 36.8755)" fill="#323232"/>
<circle cx="42.442" cy="37.9415" r="1.0398" transform="rotate(10.742 42.442 37.9415)" fill="#323232"/>
<path d="M36.145 40.451C36.8336 42.179 38.9213 44.8113 41.7637 41.517" stroke="#323232" stroke-width="1.5597" stroke-linecap="round" stroke-linejoin="round"/>
</svg>
