<svg width="28" height="25" viewBox="0 0 28 25" fill="none" xmlns="http://www.w3.org/2000/svg">
<path d="M24.3131 3.37851C23.7173 2.78235 23.0098 2.30943 22.2311 1.98677C21.4524 1.66412 20.6177 1.49805 19.7748 1.49805C18.9319 1.49805 18.0973 1.66412 17.3186 1.98677C16.5399 2.30943 15.8324 2.78235 15.2365 3.37851L13.9998 4.61518L12.7631 3.37851C11.5595 2.17487 9.92702 1.49867 8.22481 1.49867C6.52261 1.49867 4.89012 2.17487 3.68648 3.37851C2.48284 4.58215 1.80664 6.21464 1.80664 7.91684C1.80664 9.61905 2.48284 11.2515 3.68648 12.4552L13.9998 22.7685L24.3131 12.4552C24.9093 11.8593 25.3822 11.1518 25.7049 10.3731C26.0275 9.59439 26.1936 8.75975 26.1936 7.91684C26.1936 7.07394 26.0275 6.2393 25.7049 5.4606C25.3822 4.68189 24.9093 3.97439 24.3131 3.37851Z" fill="#EF5E7A" stroke="#1E1E1E" stroke-width="3" stroke-linecap="round" stroke-linejoin="round"/>
</svg>
