<svg width="32" height="32" viewBox="0 0 32 32" fill="none" xmlns="http://www.w3.org/2000/svg">
<path d="M9.33333 14.667V9.33366C9.33333 7.56555 10.0357 5.86986 11.286 4.61961C12.5362 3.36937 14.2319 2.66699 16 2.66699C17.7681 2.66699 19.4638 3.36937 20.714 4.61961C21.9643 5.86986 22.6667 7.56555 22.6667 9.33366V14.667M6.66667 14.667H25.3333C26.8061 14.667 28 15.8609 28 17.3337V26.667C28 28.1398 26.8061 29.3337 25.3333 29.3337H6.66667C5.19391 29.3337 4 28.1398 4 26.667V17.3337C4 15.8609 5.19391 14.667 6.66667 14.667Z" stroke="#ABABAB" stroke-width="2.5" stroke-linecap="round" stroke-linejoin="round"/>
</svg>
