<svg width="24" height="26" viewBox="0 0 24 26" fill="none" xmlns="http://www.w3.org/2000/svg">
<path d="M19 8.3335C19 6.47698 18.2625 4.6965 16.9497 3.38375C15.637 2.07099 13.8565 1.3335 12 1.3335C10.1435 1.3335 8.36301 2.07099 7.05025 3.38375C5.7375 4.6965 5 6.47698 5 8.3335C5 16.5002 1.5 18.8335 1.5 18.8335H22.5C22.5 18.8335 19 16.5002 19 8.3335Z" fill="#EF5E7A"/>
<path d="M14.0183 23.5002C13.8132 23.8538 13.5188 24.1473 13.1646 24.3513C12.8104 24.5553 12.4088 24.6627 12 24.6627C11.5912 24.6627 11.1896 24.5553 10.8354 24.3513C10.4812 24.1473 10.1868 23.8538 9.98167 23.5002" fill="#EF5E7A"/>
<path d="M14.0183 23.5002C13.8132 23.8538 13.5188 24.1473 13.1646 24.3513C12.8104 24.5553 12.4088 24.6627 12 24.6627C11.5912 24.6627 11.1896 24.5553 10.8354 24.3513C10.4812 24.1473 10.1868 23.8538 9.98167 23.5002M19 8.3335C19 6.47698 18.2625 4.6965 16.9497 3.38375C15.637 2.07099 13.8565 1.3335 12 1.3335C10.1435 1.3335 8.36301 2.07099 7.05025 3.38375C5.7375 4.6965 5 6.47698 5 8.3335C5 16.5002 1.5 18.8335 1.5 18.8335H22.5C22.5 18.8335 19 16.5002 19 8.3335Z" stroke="#323232" stroke-width="2" stroke-linecap="round" stroke-linejoin="round"/>
</svg>
