<svg width="187" height="187" viewBox="0 0 187 187" fill="none" xmlns="http://www.w3.org/2000/svg">
<path fill-rule="evenodd" clip-rule="evenodd" d="M78.5375 171.972C121.912 180.2 163.744 151.709 171.973 108.335C180.202 64.9604 151.71 23.1279 108.336 14.8993C64.9617 6.67062 23.1292 35.1619 14.9006 78.5362C6.67192 121.911 35.1632 163.743 78.5375 171.972ZM35.9943 91.3607C35.156 105.252 41.3837 135.809 73.0002 146.905C75.0808 137.66 75.4561 119.056 69.617 110.483C69.3313 110.063 69.0459 109.628 68.7517 109.178C65.0982 103.599 60.076 95.9293 35.9943 91.3607ZM92.4199 150.589C125.903 151.843 142.89 125.69 147.197 112.457C123.116 107.888 115.633 113.186 110.19 117.039C109.752 117.35 109.327 117.651 108.907 117.936C100.334 123.776 93.8696 141.224 92.4199 150.589ZM39.8511 71.0305C45.9072 56.3317 71.3328 30.1315 106.01 37.4944C140.687 44.8573 148.925 76.529 151.032 92.1228C133.663 80.3321 87.111 59.6066 39.8511 71.0305Z" fill="#EF5E7A"/>
<circle cx="87.1036" cy="87.2265" r="1.9596" transform="rotate(10.742 87.1036 87.2265)" fill="white" stroke="white"/>
<circle cx="100.395" cy="89.748" r="1.9596" transform="rotate(10.742 100.395 89.748)" fill="white" stroke="white"/>
<path d="M85.499 95.6836C87.1277 99.7709 92.0661 105.997 98.7898 98.205" stroke="white" stroke-width="3" stroke-linecap="round" stroke-linejoin="round"/>
</svg>
