<svg width="22" height="22" viewBox="0 0 22 22" fill="none" xmlns="http://www.w3.org/2000/svg">
<path d="M11.0002 20.1663C16.0628 20.1663 20.1668 16.0623 20.1668 10.9997C20.1668 5.93706 16.0628 1.83301 11.0002 1.83301C5.93755 1.83301 1.8335 5.93706 1.8335 10.9997C1.8335 16.0623 5.93755 20.1663 11.0002 20.1663Z" fill="#ABABAB"/>
<path d="M13.7502 8.24967L8.25016 13.7497M8.25016 8.24967L13.7502 13.7497M20.1668 10.9997C20.1668 16.0623 16.0628 20.1663 11.0002 20.1663C5.93755 20.1663 1.8335 16.0623 1.8335 10.9997C1.8335 5.93706 5.93755 1.83301 11.0002 1.83301C16.0628 1.83301 20.1668 5.93706 20.1668 10.9997Z" stroke="white" stroke-linecap="round" stroke-linejoin="round"/>
</svg>
