<svg width="38" height="32" viewBox="0 0 38 32" fill="none" xmlns="http://www.w3.org/2000/svg">
<path d="M25.3333 22.3333V1.75H1.58331V22.3333H25.3333ZM25.3333 22.3333H36.4166V14.4167L31.6666 9.66667H25.3333V22.3333ZM12.6666 26.2917C12.6666 28.4778 10.8944 30.25 8.70831 30.25C6.52219 30.25 4.74998 28.4778 4.74998 26.2917C4.74998 24.1055 6.52219 22.3333 8.70831 22.3333C10.8944 22.3333 12.6666 24.1055 12.6666 26.2917ZM33.25 26.2917C33.25 28.4778 31.4778 30.25 29.2916 30.25C27.1055 30.25 25.3333 28.4778 25.3333 26.2917C25.3333 24.1055 27.1055 22.3333 29.2916 22.3333C31.4778 22.3333 33.25 24.1055 33.25 26.2917Z" stroke="#EF5E7A" stroke-width="3" stroke-linecap="round" stroke-linejoin="round"/>
</svg>
