<svg width="150" height="150" viewBox="0 0 150 150" fill="none" xmlns="http://www.w3.org/2000/svg">
<path fill-rule="evenodd" clip-rule="evenodd" d="M63.0195 137.584C97.6337 144.151 131.017 121.414 137.584 86.7998C144.151 52.1857 121.414 18.802 86.7997 12.2353C52.1855 5.66859 18.8019 28.4055 12.2352 63.0197C5.66845 97.6338 28.4054 131.017 63.0195 137.584ZM29.0686 73.2538C28.3997 84.3398 33.3696 108.725 58.6006 117.58C60.2609 110.202 60.5604 95.3557 55.9007 88.514C55.6726 88.1792 55.4449 87.8314 55.2101 87.4728C52.2945 83.0203 48.2866 76.8997 29.0686 73.2538ZM74.0981 120.52C100.819 121.521 114.374 100.65 117.812 90.0894C98.5942 86.4435 92.6232 90.6709 88.2794 93.7463C87.9296 93.994 87.5903 94.2342 87.2555 94.4622C80.4138 99.122 75.255 113.047 74.0981 120.52ZM32.1465 57.0299C36.9795 45.2998 57.2699 24.3912 84.9435 30.267C112.617 36.1428 119.191 61.4179 120.872 73.8623C107.012 64.4529 69.8614 47.9133 32.1465 57.0299Z" fill="#EF5E7A"/>
<circle cx="69.8561" cy="69.9553" r="1.46284" transform="rotate(10.742 69.8561 69.9553)" fill="white" stroke="white"/>
<circle cx="80.4625" cy="71.9675" r="1.46284" transform="rotate(10.742 80.4625 71.9675)" fill="white" stroke="white"/>
<path d="M68.5756 76.7048C69.8753 79.9667 73.8163 84.9357 79.182 78.717" stroke="white" stroke-width="3" stroke-linecap="round" stroke-linejoin="round"/>
</svg>
