<svg width="120" height="120" viewBox="0 0 120 120" fill="none" xmlns="http://www.w3.org/2000/svg">
<circle cx="60" cy="60" r="60" fill="#EF5E7A"/>
<path d="M56.5938 60.478C57.0941 62.9542 58.8673 66.6244 61.957 61.4955" stroke="#323232" stroke-width="1.5597" stroke-linejoin="round"/>
<path fill-rule="evenodd" clip-rule="evenodd" d="M53.2014 93.7013C71.5379 97.18 89.2227 85.1353 92.7014 66.7987C96.18 48.4621 84.1353 30.7773 65.7987 27.2987C47.4621 23.82 29.7774 35.8647 26.2987 54.2013C22.8201 72.5379 34.8648 90.2226 53.2014 93.7013ZM35.2161 59.6228C34.8617 65.4955 37.4945 78.4135 50.8604 83.1042C51.74 79.196 51.8986 71.3311 49.4302 67.7068C49.3094 67.5295 49.1888 67.3453 49.0645 67.1555L49.0643 67.1552C47.5198 64.7965 45.3967 61.5542 35.2161 59.6228ZM59.0701 84.6617C73.2253 85.1922 80.4062 74.1359 82.2273 68.5415C72.0467 66.6101 68.8836 68.8496 66.5826 70.4787L66.5821 70.479C66.397 70.6101 66.2174 70.7373 66.0402 70.8579C62.4158 73.3264 59.683 80.7029 59.0701 84.6617ZM36.8466 51.0283C39.4069 44.8143 50.1556 33.7382 64.8154 36.8509C79.4753 39.9635 82.958 53.3528 83.8485 59.9451C76.5059 54.9606 56.8258 46.1988 36.8466 51.0283Z" fill="#D6D6D6"/>
<path d="M50.8604 83.1042L50.6022 83.84C50.8122 83.9137 51.0437 83.8942 51.2384 83.7863C51.433 83.6784 51.5724 83.4925 51.6212 83.2754L50.8604 83.1042ZM35.2161 59.6228L35.3614 58.8566C35.1413 58.8149 34.9138 58.8698 34.737 59.0075C34.5602 59.1451 34.4512 59.3522 34.4377 59.5759L35.2161 59.6228ZM49.4302 67.7068L50.0747 67.2678L50.0747 67.2678L49.4302 67.7068ZM49.0645 67.1555L49.7169 66.7283C49.7143 66.7243 49.7117 66.7204 49.7091 66.7165L49.0645 67.1555ZM49.0643 67.1552L48.4119 67.5825C48.4145 67.5864 48.4171 67.5903 48.4198 67.5942L49.0643 67.1552ZM82.2273 68.5415L82.9689 68.7829C83.0382 68.5698 83.0126 68.3372 82.8985 68.1443C82.7844 67.9515 82.5928 67.8171 82.3727 67.7753L82.2273 68.5415ZM59.0701 84.6617L58.2994 84.5424C58.2654 84.7623 58.3269 84.9864 58.4686 85.158C58.6102 85.3297 58.8185 85.4327 59.0409 85.441L59.0701 84.6617ZM66.5826 70.4787L67.0317 71.1162L67.0332 71.1152L66.5826 70.4787ZM66.5821 70.479L66.133 69.8415L66.1315 69.8425L66.5821 70.479ZM66.0402 70.8579L65.6012 70.2134L65.6012 70.2134L66.0402 70.8579ZM36.8466 51.0283L36.1256 50.7312C36.0139 51.0023 36.0637 51.3132 36.2545 51.5358C36.4453 51.7584 36.7449 51.8552 37.0299 51.7863L36.8466 51.0283ZM83.8485 59.9451L83.4105 60.5903C83.665 60.7631 83.9974 60.7701 84.259 60.6082C84.5206 60.4462 84.6625 60.1456 84.6213 59.8407L83.8485 59.9451ZM91.9352 66.6533C88.5368 84.5668 71.2601 96.3335 53.3467 92.9351L53.056 94.4675C71.8157 98.0264 89.9086 85.7038 93.4675 66.944L91.9352 66.6533ZM65.6534 28.0649C83.5668 31.4633 95.3336 48.7399 91.9352 66.6533L93.4675 66.944C97.0265 48.1843 84.7038 30.0914 65.9441 26.5325L65.6534 28.0649ZM27.0649 54.3467C30.4633 36.4332 47.7399 24.6665 65.6534 28.0649L65.9441 26.5325C47.1843 22.9736 29.0915 35.2962 25.5325 54.056L27.0649 54.3467ZM53.3467 92.9351C35.4333 89.5367 23.6665 72.2601 27.0649 54.3467L25.5325 54.056C21.9736 72.8157 34.2963 90.9086 53.056 94.4675L53.3467 92.9351ZM51.1187 82.3683C38.2182 77.8411 35.6509 65.3645 35.9945 59.6698L34.4377 59.5759C34.0725 65.6266 36.7708 78.986 50.6022 83.84L51.1187 82.3683ZM48.7856 68.1458C49.8951 69.7748 50.465 72.4669 50.6221 75.3416C50.7777 78.1875 50.5216 81.058 50.0996 82.9329L51.6212 83.2754C52.0788 81.2422 52.3418 78.2262 52.1795 75.2565C52.0187 72.3157 51.4337 69.2631 50.0747 67.2678L48.7856 68.1458ZM48.4121 67.5827C48.5357 67.7714 48.6602 67.9616 48.7856 68.1458L50.0747 67.2678C49.9587 67.0974 49.842 66.9193 49.7169 66.7283L48.4121 67.5827ZM48.4198 67.5942L48.4199 67.5945L49.7091 66.7165L49.7089 66.7162L48.4198 67.5942ZM35.0707 60.389C40.0978 61.3427 43.0629 62.6072 44.9426 63.8753C46.8046 65.1314 47.6519 66.4218 48.4119 67.5825L49.7168 66.728C48.9322 65.53 47.9457 64.0198 45.8149 62.5823C43.7017 61.1567 40.5149 59.8343 35.3614 58.8566L35.0707 60.389ZM81.4858 68.3001C79.7199 73.7249 72.7615 84.3944 59.0993 83.8824L59.0409 85.441C73.689 85.9899 81.0926 74.5469 82.9689 68.7829L81.4858 68.3001ZM67.0332 71.1152C68.1655 70.3135 69.4265 69.4231 71.6192 68.9362C73.8327 68.4446 77.0549 68.354 82.082 69.3077L82.3727 67.7753C77.2192 66.7976 73.7695 66.861 71.2811 67.4136C68.7718 67.9708 67.3007 69.0147 66.1319 69.8422L67.0332 71.1152ZM67.0313 71.1165L67.0317 71.1162L66.1334 69.8412L66.133 69.8415L67.0313 71.1165ZM66.4792 71.5025C66.6633 71.3771 66.8487 71.2458 67.0328 71.1155L66.1315 69.8425C65.9452 69.9744 65.7715 70.0974 65.6012 70.2134L66.4792 71.5025ZM59.8408 84.781C60.1348 82.8818 60.9478 80.1169 62.1348 77.5258C63.3339 74.9083 64.8501 72.612 66.4792 71.5025L65.6012 70.2134C63.6059 71.5723 61.9435 74.1986 60.7168 76.8762C59.4782 79.5801 58.6183 82.4829 58.2994 84.5424L59.8408 84.781ZM64.9774 36.088C57.4064 34.4805 50.8451 36.5423 45.8676 39.7889C40.9114 43.0216 37.4725 47.4622 36.1256 50.7312L37.5677 51.3254C38.781 48.3805 41.9965 44.176 46.7197 41.0953C51.4216 38.0285 57.5646 36.1085 64.6535 37.6137L64.9774 36.088ZM84.6213 59.8407C83.7243 53.2 80.1671 39.3132 64.9774 36.088L64.6535 37.6137C78.7835 40.6139 82.1917 53.5055 83.0757 60.0495L84.6213 59.8407ZM37.0299 51.7863C56.7154 47.0278 76.1683 55.674 83.4105 60.5903L84.2865 59.2999C76.8434 54.2472 56.9363 45.3698 36.6634 50.2703L37.0299 51.7863Z" fill="#323232"/>
<circle cx="56.8229" cy="57.8755" r="1.0398" transform="rotate(10.742 56.8229 57.8755)" fill="#323232"/>
<circle cx="62.4415" cy="58.9415" r="1.0398" transform="rotate(10.742 62.4415 58.9415)" fill="#323232"/>
<path d="M56.1445 61.4509C56.8331 63.1789 58.9208 65.8111 61.7632 62.5169" stroke="#323232" stroke-width="1.5597" stroke-linecap="round" stroke-linejoin="round"/>
</svg>
